<?xml version="1.0" encoding="iso-8859-1"?>
<!-- Generator: Adobe Illustrator 16.0.0, SVG Export Plug-In . SVG Version: 6.00 Build 0)  -->
<!DOCTYPE svg PUBLIC "-//W3C//DTD SVG 1.1//EN" "http://www.w3.org/Graphics/SVG/1.1/DTD/svg11.dtd">
<svg xmlns="http://www.w3.org/2000/svg" xmlns:xlink="http://www.w3.org/1999/xlink" version="1.1" id="Capa_1" x="0px" y="0px" width="512px" height="512px" viewBox="0 0 457.241 457.241" style="enable-background:new 0 0 457.241 457.241;" xml:space="preserve">
<g>
	<g>
		<path d="M186.054,109.788h104.319c11.669,0,21.165,9.491,21.165,21.155c0,9.68-6.572,17.775-15.464,20.285    c-1.476-0.63-3.187-0.667-4.703,0.167c-0.316,0.178-0.525,0.457-0.793,0.683c-0.064,0-0.121,0.026-0.199,0.026H186.054    c-11.664,0-21.158-9.496-21.158-21.161C164.896,119.278,174.39,109.788,186.054,109.788z" fill="#FFFFFF"/>
		<path d="M291.585,162.791c-0.399,0.016-0.799,0.062-1.213,0.062H186.054c-2.017,0-3.985-0.209-5.898-0.572l-29.73,49.161v228.26    c0,0.383-0.147,0.74-0.225,1.112c3.493,5.687,31.992,16.426,84.103,16.426c55.728,0,84.473-12.294,84.473-17.538V211.348    L291.585,162.791z M308.116,429.094c0,2.356-1.543,4.441-3.802,5.133c-1.563,0.482-38.766,11.766-79.837,11.766    c-24.48,0-45.203-4.059-61.591-12.075c-1.843-0.896-3.016-2.781-3.016-4.823V249.385c0-1.795,0.898-3.475,2.392-4.472    c0.666-0.447,6.913-4.337,20.905-4.337c13.079,0,28.77,3.292,46.634,9.78c11.785,4.295,23.019,6.466,33.381,6.466    c18.76,0,29.778-7.159,33.643-10.225l2.584-2.038c1.61-1.274,3.82-1.506,5.68-0.613c1.847,0.898,3.022,2.776,3.022,4.836    L308.116,429.094L308.116,429.094z" fill="#FFFFFF"/>
		<path d="M274.829,0.883c-10.367,1.942-18.319,7.165-23.653,15.534c-13.229,20.73-5.046,53.612-4.678,55.003    c0.582,2.305,2.608,3.942,4.981,4.037c0.091,0,0.147,0.005,0.226,0.005c2.283,0,4.337-1.444,5.066-3.617    c3.023-8.703,15.302-12.294,26.131-15.455c4.703-1.369,9.136-2.671,12.699-4.356c9.219-4.367,15.412-21.37,12.499-34.315    C305.001,3.955,292.75-2.492,274.829,0.883z M291.001,42.317c-2.802,1.323-6.835,2.509-11.107,3.752    c-8.299,2.426-17.932,5.245-24.956,10.814c-1.069-10.162-1.091-24.698,5.298-34.703c3.722-5.822,9.139-9.333,16.561-10.725    c2.579-0.488,4.988-0.735,7.14-0.735c7.785,0,12.247,3.061,13.664,9.354C299.701,29.356,294.456,40.684,291.001,42.317z" fill="#FFFFFF"/>
		<path d="M286.431,56.501c-18.143,0-27.314,23.333-27.687,24.326c-0.882,2.277-0.116,4.856,1.873,6.283    c1.969,1.428,4.656,1.349,6.552-0.194c0.525-0.426,1.312-0.909,2.898-0.909c2.688,0,6.059,1.339,9.05,2.525    c1.88,0.746,3.664,1.454,5.334,1.858c2.341,0.566,5.327,0.65,6.903,0.65c1.568,0,4.561-0.084,6.866-0.656    c4.23-1.045,10.707-5.622,11.831-12.53c0.715-4.41-0.482-10.961-10.242-17.134C295.365,57.918,290.867,56.501,286.431,56.501z     M295.632,79.945c-1.392,0.347-7.238,0.335-8.666-0.006c-1.114-0.262-2.437-0.813-3.906-1.401    c-2.693-1.071-5.863-2.326-9.229-2.929c3.192-4.357,7.565-8.357,12.601-8.357c2.366,0,4.929,0.861,7.616,2.557    c3.648,2.3,5.653,4.667,5.381,6.321C299.127,77.971,296.609,79.704,295.632,79.945z" fill="#FFFFFF"/>
		<path d="M156.628,39.577c-17.05,10.881-19.126,22.347-17.856,30.042c2.006,12.169,13.481,21.208,21.001,23.061    c4.16,1.029,9.756,1.187,12.724,1.187l0,0c5.069,0,9.746-0.431,12.835-1.176c3.05-0.735,6.522-2.115,10.2-3.574    c6.578-2.61,14.029-5.576,20.62-5.576c3.821,0,6.935,1.029,9.515,3.135c1.01,0.823,2.478,1.286,3.454,1.218    c2.968,0.152,5.436-2.389,5.436-5.375c0-1.35-0.499-2.583-1.322-3.528c-3.864-6.515-28.104-45.182-57.571-45.182    C169.029,33.802,162.633,35.75,156.628,39.577z M216.02,72.785c-8.604,0.036-17.389,3.522-24.457,6.331    c-3.318,1.317-6.444,2.557-8.751,3.118c-2.236,0.536-6.186,0.876-10.315,0.876c-4.092,0-7.977-0.335-10.149-0.871    c-3.751-0.924-11.73-6.834-12.966-14.362c-1.344-8.168,6.344-14.966,13.031-19.233c4.305-2.751,8.638-4.09,13.239-4.09    C191.73,44.553,206.991,60.842,216.02,72.785z" fill="#FFFFFF"/>
	</g>
</g>
<g>
</g>
<g>
</g>
<g>
</g>
<g>
</g>
<g>
</g>
<g>
</g>
<g>
</g>
<g>
</g>
<g>
</g>
<g>
</g>
<g>
</g>
<g>
</g>
<g>
</g>
<g>
</g>
<g>
</g>
</svg>
